<mxfile host="app.diagrams.net" agent="Mozilla/5.0 (Macintosh; Intel Mac OS X 10_15_7) AppleWebKit/537.36 (KHTML, like Gecko) Chrome/120.0.0.0 Safari/537.36" version="24.7.12">
  <diagram id="C5RBs43oDa-KdzZeNtuy" name="Page-1">
    <mxGraphModel dx="1534" dy="752" grid="1" gridSize="10" guides="1" tooltips="1" connect="1" arrows="1" fold="1" page="1" pageScale="1" pageWidth="827" pageHeight="1169" math="0" shadow="0">
      <root>
        <mxCell id="WIyWlLk6GJQsqaUBKTNV-0" />
        <mxCell id="WIyWlLk6GJQsqaUBKTNV-1" parent="WIyWlLk6GJQsqaUBKTNV-0" />
        <mxCell id="93vqBzMkXykJCAfsresO-2" value="" style="edgeStyle=orthogonalEdgeStyle;rounded=0;orthogonalLoop=1;jettySize=auto;html=1;" parent="WIyWlLk6GJQsqaUBKTNV-1" source="WIyWlLk6GJQsqaUBKTNV-3" target="WIyWlLk6GJQsqaUBKTNV-12" edge="1">
          <mxGeometry relative="1" as="geometry" />
        </mxCell>
        <mxCell id="93vqBzMkXykJCAfsresO-4" style="edgeStyle=orthogonalEdgeStyle;rounded=0;orthogonalLoop=1;jettySize=auto;html=1;entryX=0.5;entryY=0;entryDx=0;entryDy=0;" parent="WIyWlLk6GJQsqaUBKTNV-1" source="WIyWlLk6GJQsqaUBKTNV-3" target="WIyWlLk6GJQsqaUBKTNV-7" edge="1">
          <mxGeometry relative="1" as="geometry" />
        </mxCell>
        <mxCell id="WIyWlLk6GJQsqaUBKTNV-3" value="Design pattern&amp;nbsp;" style="rounded=1;whiteSpace=wrap;html=1;fontSize=12;glass=0;strokeWidth=1;shadow=0;" parent="WIyWlLk6GJQsqaUBKTNV-1" vertex="1">
          <mxGeometry x="310" y="10" width="120" height="40" as="geometry" />
        </mxCell>
        <mxCell id="93vqBzMkXykJCAfsresO-41" style="edgeStyle=orthogonalEdgeStyle;rounded=0;orthogonalLoop=1;jettySize=auto;html=1;" parent="WIyWlLk6GJQsqaUBKTNV-1" source="WIyWlLk6GJQsqaUBKTNV-7" edge="1">
          <mxGeometry relative="1" as="geometry">
            <mxPoint x="660" y="620" as="targetPoint" />
          </mxGeometry>
        </mxCell>
        <mxCell id="WIyWlLk6GJQsqaUBKTNV-7" value="Behavioural Desigb&amp;nbsp;&amp;nbsp;" style="rounded=1;whiteSpace=wrap;html=1;fontSize=12;glass=0;strokeWidth=1;shadow=0;" parent="WIyWlLk6GJQsqaUBKTNV-1" vertex="1">
          <mxGeometry x="600" y="120" width="120" height="40" as="geometry" />
        </mxCell>
        <mxCell id="93vqBzMkXykJCAfsresO-5" style="edgeStyle=orthogonalEdgeStyle;rounded=0;orthogonalLoop=1;jettySize=auto;html=1;" parent="WIyWlLk6GJQsqaUBKTNV-1" source="WIyWlLk6GJQsqaUBKTNV-11" edge="1">
          <mxGeometry relative="1" as="geometry">
            <mxPoint x="80" y="620" as="targetPoint" />
          </mxGeometry>
        </mxCell>
        <mxCell id="WIyWlLk6GJQsqaUBKTNV-11" value="Creational Design" style="rounded=1;whiteSpace=wrap;html=1;fontSize=12;glass=0;strokeWidth=1;shadow=0;" parent="WIyWlLk6GJQsqaUBKTNV-1" vertex="1">
          <mxGeometry x="20" y="120" width="120" height="40" as="geometry" />
        </mxCell>
        <mxCell id="93vqBzMkXykJCAfsresO-17" style="edgeStyle=orthogonalEdgeStyle;rounded=0;orthogonalLoop=1;jettySize=auto;html=1;" parent="WIyWlLk6GJQsqaUBKTNV-1" source="WIyWlLk6GJQsqaUBKTNV-12" edge="1">
          <mxGeometry relative="1" as="geometry">
            <mxPoint x="370" y="620" as="targetPoint" />
          </mxGeometry>
        </mxCell>
        <mxCell id="WIyWlLk6GJQsqaUBKTNV-12" value="Structural Design&amp;nbsp;" style="rounded=1;whiteSpace=wrap;html=1;fontSize=12;glass=0;strokeWidth=1;shadow=0;" parent="WIyWlLk6GJQsqaUBKTNV-1" vertex="1">
          <mxGeometry x="310" y="120" width="120" height="40" as="geometry" />
        </mxCell>
        <mxCell id="93vqBzMkXykJCAfsresO-3" style="edgeStyle=orthogonalEdgeStyle;rounded=0;orthogonalLoop=1;jettySize=auto;html=1;entryX=0.375;entryY=-0.025;entryDx=0;entryDy=0;entryPerimeter=0;" parent="WIyWlLk6GJQsqaUBKTNV-1" source="WIyWlLk6GJQsqaUBKTNV-3" target="WIyWlLk6GJQsqaUBKTNV-11" edge="1">
          <mxGeometry relative="1" as="geometry" />
        </mxCell>
        <mxCell id="93vqBzMkXykJCAfsresO-81" style="edgeStyle=orthogonalEdgeStyle;rounded=0;orthogonalLoop=1;jettySize=auto;html=1;" parent="WIyWlLk6GJQsqaUBKTNV-1" source="93vqBzMkXykJCAfsresO-6" edge="1">
          <mxGeometry relative="1" as="geometry">
            <mxPoint x="80" y="235" as="targetPoint" />
          </mxGeometry>
        </mxCell>
        <mxCell id="93vqBzMkXykJCAfsresO-6" value="Factory Method&amp;nbsp;" style="rounded=1;whiteSpace=wrap;html=1;" parent="WIyWlLk6GJQsqaUBKTNV-1" vertex="1">
          <mxGeometry x="130" y="220" width="130" height="30" as="geometry" />
        </mxCell>
        <mxCell id="93vqBzMkXykJCAfsresO-80" style="edgeStyle=orthogonalEdgeStyle;rounded=0;orthogonalLoop=1;jettySize=auto;html=1;" parent="WIyWlLk6GJQsqaUBKTNV-1" source="93vqBzMkXykJCAfsresO-7" edge="1">
          <mxGeometry relative="1" as="geometry">
            <mxPoint x="80" y="195" as="targetPoint" />
          </mxGeometry>
        </mxCell>
        <mxCell id="93vqBzMkXykJCAfsresO-7" value="Singleton" style="rounded=1;whiteSpace=wrap;html=1;" parent="WIyWlLk6GJQsqaUBKTNV-1" vertex="1">
          <mxGeometry x="130" y="180" width="130" height="30" as="geometry" />
        </mxCell>
        <mxCell id="93vqBzMkXykJCAfsresO-84" style="edgeStyle=orthogonalEdgeStyle;rounded=0;orthogonalLoop=1;jettySize=auto;html=1;" parent="WIyWlLk6GJQsqaUBKTNV-1" source="93vqBzMkXykJCAfsresO-8" edge="1">
          <mxGeometry relative="1" as="geometry">
            <mxPoint x="80" y="375" as="targetPoint" />
          </mxGeometry>
        </mxCell>
        <mxCell id="93vqBzMkXykJCAfsresO-8" value="ProtoType" style="rounded=1;whiteSpace=wrap;html=1;" parent="WIyWlLk6GJQsqaUBKTNV-1" vertex="1">
          <mxGeometry x="130" y="360" width="130" height="30" as="geometry" />
        </mxCell>
        <mxCell id="93vqBzMkXykJCAfsresO-82" style="edgeStyle=orthogonalEdgeStyle;rounded=0;orthogonalLoop=1;jettySize=auto;html=1;" parent="WIyWlLk6GJQsqaUBKTNV-1" source="93vqBzMkXykJCAfsresO-9" edge="1">
          <mxGeometry relative="1" as="geometry">
            <mxPoint x="80" y="285" as="targetPoint" />
          </mxGeometry>
        </mxCell>
        <mxCell id="93vqBzMkXykJCAfsresO-9" value="Abstract Factory" style="rounded=1;whiteSpace=wrap;html=1;" parent="WIyWlLk6GJQsqaUBKTNV-1" vertex="1">
          <mxGeometry x="130" y="270" width="130" height="30" as="geometry" />
        </mxCell>
        <mxCell id="93vqBzMkXykJCAfsresO-83" style="edgeStyle=orthogonalEdgeStyle;rounded=0;orthogonalLoop=1;jettySize=auto;html=1;" parent="WIyWlLk6GJQsqaUBKTNV-1" source="93vqBzMkXykJCAfsresO-10" edge="1">
          <mxGeometry relative="1" as="geometry">
            <mxPoint x="80" y="335" as="targetPoint" />
          </mxGeometry>
        </mxCell>
        <mxCell id="93vqBzMkXykJCAfsresO-10" value="Builder" style="rounded=1;whiteSpace=wrap;html=1;" parent="WIyWlLk6GJQsqaUBKTNV-1" vertex="1">
          <mxGeometry x="130" y="320" width="130" height="30" as="geometry" />
        </mxCell>
        <mxCell id="93vqBzMkXykJCAfsresO-71" style="edgeStyle=orthogonalEdgeStyle;rounded=0;orthogonalLoop=1;jettySize=auto;html=1;" parent="WIyWlLk6GJQsqaUBKTNV-1" source="93vqBzMkXykJCAfsresO-11" edge="1">
          <mxGeometry relative="1" as="geometry">
            <mxPoint x="370" y="185" as="targetPoint" />
          </mxGeometry>
        </mxCell>
        <mxCell id="93vqBzMkXykJCAfsresO-11" value="Adaptor" style="rounded=1;whiteSpace=wrap;html=1;" parent="WIyWlLk6GJQsqaUBKTNV-1" vertex="1">
          <mxGeometry x="414" y="170" width="130" height="30" as="geometry" />
        </mxCell>
        <mxCell id="93vqBzMkXykJCAfsresO-72" style="edgeStyle=orthogonalEdgeStyle;rounded=0;orthogonalLoop=1;jettySize=auto;html=1;" parent="WIyWlLk6GJQsqaUBKTNV-1" source="93vqBzMkXykJCAfsresO-12" edge="1">
          <mxGeometry relative="1" as="geometry">
            <mxPoint x="370" y="225" as="targetPoint" />
          </mxGeometry>
        </mxCell>
        <mxCell id="93vqBzMkXykJCAfsresO-12" value="Bridge" style="rounded=1;whiteSpace=wrap;html=1;" parent="WIyWlLk6GJQsqaUBKTNV-1" vertex="1">
          <mxGeometry x="414" y="210" width="130" height="30" as="geometry" />
        </mxCell>
        <mxCell id="93vqBzMkXykJCAfsresO-73" style="edgeStyle=orthogonalEdgeStyle;rounded=0;orthogonalLoop=1;jettySize=auto;html=1;" parent="WIyWlLk6GJQsqaUBKTNV-1" source="93vqBzMkXykJCAfsresO-13" edge="1">
          <mxGeometry relative="1" as="geometry">
            <mxPoint x="370" y="265" as="targetPoint" />
          </mxGeometry>
        </mxCell>
        <mxCell id="93vqBzMkXykJCAfsresO-13" value="Composite" style="rounded=1;whiteSpace=wrap;html=1;" parent="WIyWlLk6GJQsqaUBKTNV-1" vertex="1">
          <mxGeometry x="414" y="250" width="130" height="30" as="geometry" />
        </mxCell>
        <mxCell id="93vqBzMkXykJCAfsresO-75" style="edgeStyle=orthogonalEdgeStyle;rounded=0;orthogonalLoop=1;jettySize=auto;html=1;" parent="WIyWlLk6GJQsqaUBKTNV-1" source="93vqBzMkXykJCAfsresO-14" edge="1">
          <mxGeometry relative="1" as="geometry">
            <mxPoint x="370" y="305" as="targetPoint" />
          </mxGeometry>
        </mxCell>
        <mxCell id="93vqBzMkXykJCAfsresO-14" value="Decorator" style="rounded=1;whiteSpace=wrap;html=1;" parent="WIyWlLk6GJQsqaUBKTNV-1" vertex="1">
          <mxGeometry x="414" y="290" width="130" height="30" as="geometry" />
        </mxCell>
        <mxCell id="93vqBzMkXykJCAfsresO-76" style="edgeStyle=orthogonalEdgeStyle;rounded=0;orthogonalLoop=1;jettySize=auto;html=1;" parent="WIyWlLk6GJQsqaUBKTNV-1" source="93vqBzMkXykJCAfsresO-15" edge="1">
          <mxGeometry relative="1" as="geometry">
            <mxPoint x="370" y="345" as="targetPoint" />
          </mxGeometry>
        </mxCell>
        <mxCell id="93vqBzMkXykJCAfsresO-15" value="Facade" style="rounded=1;whiteSpace=wrap;html=1;" parent="WIyWlLk6GJQsqaUBKTNV-1" vertex="1">
          <mxGeometry x="414" y="330" width="130" height="30" as="geometry" />
        </mxCell>
        <mxCell id="93vqBzMkXykJCAfsresO-77" style="edgeStyle=orthogonalEdgeStyle;rounded=0;orthogonalLoop=1;jettySize=auto;html=1;" parent="WIyWlLk6GJQsqaUBKTNV-1" source="93vqBzMkXykJCAfsresO-16" edge="1">
          <mxGeometry relative="1" as="geometry">
            <mxPoint x="370" y="385" as="targetPoint" />
          </mxGeometry>
        </mxCell>
        <mxCell id="93vqBzMkXykJCAfsresO-16" value="Flywight" style="rounded=1;whiteSpace=wrap;html=1;" parent="WIyWlLk6GJQsqaUBKTNV-1" vertex="1">
          <mxGeometry x="414" y="370" width="130" height="30" as="geometry" />
        </mxCell>
        <mxCell id="93vqBzMkXykJCAfsresO-27" value="" style="endArrow=none;html=1;rounded=0;" parent="WIyWlLk6GJQsqaUBKTNV-1" edge="1">
          <mxGeometry width="50" height="50" relative="1" as="geometry">
            <mxPoint x="80" y="284.5" as="sourcePoint" />
            <mxPoint x="130" y="284.5" as="targetPoint" />
            <Array as="points" />
          </mxGeometry>
        </mxCell>
        <mxCell id="93vqBzMkXykJCAfsresO-28" value="" style="endArrow=none;html=1;rounded=0;" parent="WIyWlLk6GJQsqaUBKTNV-1" edge="1">
          <mxGeometry width="50" height="50" relative="1" as="geometry">
            <mxPoint x="80" y="334.5" as="sourcePoint" />
            <mxPoint x="130" y="334.5" as="targetPoint" />
            <Array as="points" />
          </mxGeometry>
        </mxCell>
        <mxCell id="93vqBzMkXykJCAfsresO-35" value="" style="endArrow=none;html=1;rounded=0;" parent="WIyWlLk6GJQsqaUBKTNV-1" edge="1">
          <mxGeometry width="50" height="50" relative="1" as="geometry">
            <mxPoint x="370" y="265" as="sourcePoint" />
            <mxPoint x="414" y="264.5" as="targetPoint" />
            <Array as="points">
              <mxPoint x="394" y="264.5" />
            </Array>
          </mxGeometry>
        </mxCell>
        <mxCell id="93vqBzMkXykJCAfsresO-37" value="" style="endArrow=none;html=1;rounded=0;" parent="WIyWlLk6GJQsqaUBKTNV-1" edge="1">
          <mxGeometry width="50" height="50" relative="1" as="geometry">
            <mxPoint x="370" y="345" as="sourcePoint" />
            <mxPoint x="414" y="344.5" as="targetPoint" />
            <Array as="points">
              <mxPoint x="394" y="344.5" />
            </Array>
          </mxGeometry>
        </mxCell>
        <mxCell id="93vqBzMkXykJCAfsresO-38" value="" style="endArrow=none;html=1;rounded=0;" parent="WIyWlLk6GJQsqaUBKTNV-1" edge="1">
          <mxGeometry width="50" height="50" relative="1" as="geometry">
            <mxPoint x="370" y="385" as="sourcePoint" />
            <mxPoint x="414" y="384.5" as="targetPoint" />
            <Array as="points">
              <mxPoint x="394" y="384.5" />
            </Array>
          </mxGeometry>
        </mxCell>
        <mxCell id="93vqBzMkXykJCAfsresO-78" style="edgeStyle=orthogonalEdgeStyle;rounded=0;orthogonalLoop=1;jettySize=auto;html=1;" parent="WIyWlLk6GJQsqaUBKTNV-1" source="93vqBzMkXykJCAfsresO-39" edge="1">
          <mxGeometry relative="1" as="geometry">
            <mxPoint x="370" y="425" as="targetPoint" />
          </mxGeometry>
        </mxCell>
        <mxCell id="93vqBzMkXykJCAfsresO-39" value="Proxy" style="rounded=1;whiteSpace=wrap;html=1;" parent="WIyWlLk6GJQsqaUBKTNV-1" vertex="1">
          <mxGeometry x="414" y="410" width="130" height="30" as="geometry" />
        </mxCell>
        <mxCell id="93vqBzMkXykJCAfsresO-40" value="" style="endArrow=none;html=1;rounded=0;" parent="WIyWlLk6GJQsqaUBKTNV-1" edge="1">
          <mxGeometry width="50" height="50" relative="1" as="geometry">
            <mxPoint x="370" y="425" as="sourcePoint" />
            <mxPoint x="414" y="424.5" as="targetPoint" />
            <Array as="points">
              <mxPoint x="394" y="424.5" />
            </Array>
          </mxGeometry>
        </mxCell>
        <mxCell id="93vqBzMkXykJCAfsresO-59" style="edgeStyle=orthogonalEdgeStyle;rounded=0;orthogonalLoop=1;jettySize=auto;html=1;" parent="WIyWlLk6GJQsqaUBKTNV-1" source="93vqBzMkXykJCAfsresO-42" edge="1">
          <mxGeometry relative="1" as="geometry">
            <mxPoint x="660" y="205" as="targetPoint" />
          </mxGeometry>
        </mxCell>
        <mxCell id="93vqBzMkXykJCAfsresO-42" value="Chain of Resonsibilty" style="rounded=1;whiteSpace=wrap;html=1;" parent="WIyWlLk6GJQsqaUBKTNV-1" vertex="1">
          <mxGeometry x="720" y="190" width="130" height="30" as="geometry" />
        </mxCell>
        <mxCell id="93vqBzMkXykJCAfsresO-61" style="edgeStyle=orthogonalEdgeStyle;rounded=0;orthogonalLoop=1;jettySize=auto;html=1;" parent="WIyWlLk6GJQsqaUBKTNV-1" source="93vqBzMkXykJCAfsresO-43" edge="1">
          <mxGeometry relative="1" as="geometry">
            <mxPoint x="660" y="245" as="targetPoint" />
          </mxGeometry>
        </mxCell>
        <mxCell id="93vqBzMkXykJCAfsresO-43" value="Command" style="rounded=1;whiteSpace=wrap;html=1;" parent="WIyWlLk6GJQsqaUBKTNV-1" vertex="1">
          <mxGeometry x="720" y="230" width="130" height="30" as="geometry" />
        </mxCell>
        <mxCell id="93vqBzMkXykJCAfsresO-69" style="edgeStyle=orthogonalEdgeStyle;rounded=0;orthogonalLoop=1;jettySize=auto;html=1;" parent="WIyWlLk6GJQsqaUBKTNV-1" source="93vqBzMkXykJCAfsresO-44" edge="1">
          <mxGeometry relative="1" as="geometry">
            <mxPoint x="660" y="525" as="targetPoint" />
          </mxGeometry>
        </mxCell>
        <mxCell id="93vqBzMkXykJCAfsresO-44" value="Template Method" style="rounded=1;whiteSpace=wrap;html=1;" parent="WIyWlLk6GJQsqaUBKTNV-1" vertex="1">
          <mxGeometry x="720" y="510" width="130" height="30" as="geometry" />
        </mxCell>
        <mxCell id="93vqBzMkXykJCAfsresO-62" style="edgeStyle=orthogonalEdgeStyle;rounded=0;orthogonalLoop=1;jettySize=auto;html=1;" parent="WIyWlLk6GJQsqaUBKTNV-1" source="93vqBzMkXykJCAfsresO-45" edge="1">
          <mxGeometry relative="1" as="geometry">
            <mxPoint x="660" y="285" as="targetPoint" />
          </mxGeometry>
        </mxCell>
        <mxCell id="93vqBzMkXykJCAfsresO-45" value="Iterator" style="rounded=1;whiteSpace=wrap;html=1;" parent="WIyWlLk6GJQsqaUBKTNV-1" vertex="1">
          <mxGeometry x="720" y="270" width="130" height="30" as="geometry" />
        </mxCell>
        <mxCell id="93vqBzMkXykJCAfsresO-63" style="edgeStyle=orthogonalEdgeStyle;rounded=0;orthogonalLoop=1;jettySize=auto;html=1;" parent="WIyWlLk6GJQsqaUBKTNV-1" source="93vqBzMkXykJCAfsresO-46" edge="1">
          <mxGeometry relative="1" as="geometry">
            <mxPoint x="660" y="325" as="targetPoint" />
          </mxGeometry>
        </mxCell>
        <mxCell id="93vqBzMkXykJCAfsresO-46" value="Mediator" style="rounded=1;whiteSpace=wrap;html=1;" parent="WIyWlLk6GJQsqaUBKTNV-1" vertex="1">
          <mxGeometry x="720" y="310" width="130" height="30" as="geometry" />
        </mxCell>
        <mxCell id="93vqBzMkXykJCAfsresO-64" style="edgeStyle=orthogonalEdgeStyle;rounded=0;orthogonalLoop=1;jettySize=auto;html=1;" parent="WIyWlLk6GJQsqaUBKTNV-1" source="93vqBzMkXykJCAfsresO-47" edge="1">
          <mxGeometry relative="1" as="geometry">
            <mxPoint x="660" y="365" as="targetPoint" />
          </mxGeometry>
        </mxCell>
        <mxCell id="93vqBzMkXykJCAfsresO-47" value="Memento" style="rounded=1;whiteSpace=wrap;html=1;" parent="WIyWlLk6GJQsqaUBKTNV-1" vertex="1">
          <mxGeometry x="720" y="350" width="130" height="30" as="geometry" />
        </mxCell>
        <mxCell id="93vqBzMkXykJCAfsresO-66" style="edgeStyle=orthogonalEdgeStyle;rounded=0;orthogonalLoop=1;jettySize=auto;html=1;" parent="WIyWlLk6GJQsqaUBKTNV-1" source="93vqBzMkXykJCAfsresO-48" edge="1">
          <mxGeometry relative="1" as="geometry">
            <mxPoint x="660" y="405" as="targetPoint" />
          </mxGeometry>
        </mxCell>
        <mxCell id="93vqBzMkXykJCAfsresO-48" value="Observer" style="rounded=1;whiteSpace=wrap;html=1;" parent="WIyWlLk6GJQsqaUBKTNV-1" vertex="1">
          <mxGeometry x="720" y="390" width="130" height="30" as="geometry" />
        </mxCell>
        <mxCell id="93vqBzMkXykJCAfsresO-67" style="edgeStyle=orthogonalEdgeStyle;rounded=0;orthogonalLoop=1;jettySize=auto;html=1;" parent="WIyWlLk6GJQsqaUBKTNV-1" source="93vqBzMkXykJCAfsresO-49" edge="1">
          <mxGeometry relative="1" as="geometry">
            <mxPoint x="660" y="445" as="targetPoint" />
          </mxGeometry>
        </mxCell>
        <mxCell id="93vqBzMkXykJCAfsresO-49" value="State" style="rounded=1;whiteSpace=wrap;html=1;" parent="WIyWlLk6GJQsqaUBKTNV-1" vertex="1">
          <mxGeometry x="720" y="430" width="130" height="30" as="geometry" />
        </mxCell>
        <mxCell id="93vqBzMkXykJCAfsresO-68" style="edgeStyle=orthogonalEdgeStyle;rounded=0;orthogonalLoop=1;jettySize=auto;html=1;" parent="WIyWlLk6GJQsqaUBKTNV-1" source="93vqBzMkXykJCAfsresO-50" edge="1">
          <mxGeometry relative="1" as="geometry">
            <mxPoint x="660" y="485" as="targetPoint" />
          </mxGeometry>
        </mxCell>
        <mxCell id="93vqBzMkXykJCAfsresO-50" value="stage" style="rounded=1;whiteSpace=wrap;html=1;" parent="WIyWlLk6GJQsqaUBKTNV-1" vertex="1">
          <mxGeometry x="720" y="470" width="130" height="30" as="geometry" />
        </mxCell>
        <mxCell id="93vqBzMkXykJCAfsresO-70" style="edgeStyle=orthogonalEdgeStyle;rounded=0;orthogonalLoop=1;jettySize=auto;html=1;" parent="WIyWlLk6GJQsqaUBKTNV-1" source="93vqBzMkXykJCAfsresO-52" edge="1">
          <mxGeometry relative="1" as="geometry">
            <mxPoint x="660" y="570" as="targetPoint" />
          </mxGeometry>
        </mxCell>
        <mxCell id="93vqBzMkXykJCAfsresO-52" value="Vistor" style="rounded=1;whiteSpace=wrap;html=1;" parent="WIyWlLk6GJQsqaUBKTNV-1" vertex="1">
          <mxGeometry x="720" y="555" width="130" height="30" as="geometry" />
        </mxCell>
        <mxCell id="93vqBzMkXykJCAfsresO-89" value="" style="edgeStyle=orthogonalEdgeStyle;rounded=0;orthogonalLoop=1;jettySize=auto;html=1;" parent="WIyWlLk6GJQsqaUBKTNV-1" source="93vqBzMkXykJCAfsresO-85" target="93vqBzMkXykJCAfsresO-88" edge="1">
          <mxGeometry relative="1" as="geometry" />
        </mxCell>
        <mxCell id="93vqBzMkXykJCAfsresO-90" style="edgeStyle=orthogonalEdgeStyle;rounded=0;orthogonalLoop=1;jettySize=auto;html=1;entryX=0.5;entryY=0;entryDx=0;entryDy=0;" parent="WIyWlLk6GJQsqaUBKTNV-1" source="93vqBzMkXykJCAfsresO-85" target="93vqBzMkXykJCAfsresO-86" edge="1">
          <mxGeometry relative="1" as="geometry" />
        </mxCell>
        <mxCell id="93vqBzMkXykJCAfsresO-85" value="Microservice Design Pattern&amp;nbsp;" style="rounded=1;whiteSpace=wrap;html=1;" parent="WIyWlLk6GJQsqaUBKTNV-1" vertex="1">
          <mxGeometry x="370" y="720" width="180" height="30" as="geometry" />
        </mxCell>
        <mxCell id="93vqBzMkXykJCAfsresO-86" value="Application Pattern" style="rounded=1;whiteSpace=wrap;html=1;" parent="WIyWlLk6GJQsqaUBKTNV-1" vertex="1">
          <mxGeometry x="60" y="790" width="120" height="60" as="geometry" />
        </mxCell>
        <mxCell id="93vqBzMkXykJCAfsresO-87" value="Infrastructure pattern" style="rounded=1;whiteSpace=wrap;html=1;" parent="WIyWlLk6GJQsqaUBKTNV-1" vertex="1">
          <mxGeometry x="810" y="800" width="120" height="60" as="geometry" />
        </mxCell>
        <mxCell id="93vqBzMkXykJCAfsresO-88" value="Application Infrastructure pattern&amp;nbsp;" style="rounded=1;whiteSpace=wrap;html=1;" parent="WIyWlLk6GJQsqaUBKTNV-1" vertex="1">
          <mxGeometry x="400" y="800" width="120" height="60" as="geometry" />
        </mxCell>
        <mxCell id="93vqBzMkXykJCAfsresO-91" style="edgeStyle=orthogonalEdgeStyle;rounded=0;orthogonalLoop=1;jettySize=auto;html=1;entryX=0.433;entryY=-0.067;entryDx=0;entryDy=0;entryPerimeter=0;" parent="WIyWlLk6GJQsqaUBKTNV-1" source="93vqBzMkXykJCAfsresO-85" target="93vqBzMkXykJCAfsresO-87" edge="1">
          <mxGeometry relative="1" as="geometry" />
        </mxCell>
        <mxCell id="FWDyRuFAGnxOfG8vz_2f-0" value="API Gateway&lt;div&gt;Service Discovery&lt;/div&gt;&lt;div&gt;Circuit Breaker&lt;/div&gt;&lt;div&gt;Event Sourcing&amp;nbsp;&lt;/div&gt;&lt;div&gt;CQRS&lt;/div&gt;&lt;div&gt;SAGA&lt;/div&gt;&lt;div&gt;Strange pattern&lt;/div&gt;&lt;div&gt;&lt;br&gt;&lt;/div&gt;" style="rounded=0;whiteSpace=wrap;html=1;" vertex="1" parent="WIyWlLk6GJQsqaUBKTNV-1">
          <mxGeometry x="60" y="930" width="160" height="210" as="geometry" />
        </mxCell>
        <mxCell id="FWDyRuFAGnxOfG8vz_2f-3" value="" style="edgeStyle=orthogonalEdgeStyle;rounded=0;orthogonalLoop=1;jettySize=auto;html=1;" edge="1" parent="WIyWlLk6GJQsqaUBKTNV-1" source="FWDyRuFAGnxOfG8vz_2f-1" target="FWDyRuFAGnxOfG8vz_2f-2">
          <mxGeometry relative="1" as="geometry" />
        </mxCell>
        <mxCell id="FWDyRuFAGnxOfG8vz_2f-1" value="API" style="text;html=1;align=center;verticalAlign=middle;resizable=0;points=[];autosize=1;strokeColor=none;fillColor=none;" vertex="1" parent="WIyWlLk6GJQsqaUBKTNV-1">
          <mxGeometry x="270" y="980" width="40" height="30" as="geometry" />
        </mxCell>
        <mxCell id="FWDyRuFAGnxOfG8vz_2f-4" style="edgeStyle=orthogonalEdgeStyle;rounded=0;orthogonalLoop=1;jettySize=auto;html=1;" edge="1" parent="WIyWlLk6GJQsqaUBKTNV-1" source="FWDyRuFAGnxOfG8vz_2f-2">
          <mxGeometry relative="1" as="geometry">
            <mxPoint x="460" y="920" as="targetPoint" />
          </mxGeometry>
        </mxCell>
        <mxCell id="FWDyRuFAGnxOfG8vz_2f-5" style="edgeStyle=orthogonalEdgeStyle;rounded=0;orthogonalLoop=1;jettySize=auto;html=1;" edge="1" parent="WIyWlLk6GJQsqaUBKTNV-1" source="FWDyRuFAGnxOfG8vz_2f-2">
          <mxGeometry relative="1" as="geometry">
            <mxPoint x="460" y="1080" as="targetPoint" />
          </mxGeometry>
        </mxCell>
        <mxCell id="FWDyRuFAGnxOfG8vz_2f-6" style="edgeStyle=orthogonalEdgeStyle;rounded=0;orthogonalLoop=1;jettySize=auto;html=1;" edge="1" parent="WIyWlLk6GJQsqaUBKTNV-1" source="FWDyRuFAGnxOfG8vz_2f-2">
          <mxGeometry relative="1" as="geometry">
            <mxPoint x="460" y="960" as="targetPoint" />
          </mxGeometry>
        </mxCell>
        <mxCell id="FWDyRuFAGnxOfG8vz_2f-7" style="edgeStyle=orthogonalEdgeStyle;rounded=0;orthogonalLoop=1;jettySize=auto;html=1;" edge="1" parent="WIyWlLk6GJQsqaUBKTNV-1" source="FWDyRuFAGnxOfG8vz_2f-2">
          <mxGeometry relative="1" as="geometry">
            <mxPoint x="460" y="1040" as="targetPoint" />
          </mxGeometry>
        </mxCell>
        <mxCell id="FWDyRuFAGnxOfG8vz_2f-2" value="" style="whiteSpace=wrap;html=1;" vertex="1" parent="WIyWlLk6GJQsqaUBKTNV-1">
          <mxGeometry x="360" y="880" width="10" height="230" as="geometry" />
        </mxCell>
        <mxCell id="FWDyRuFAGnxOfG8vz_2f-9" value="POST" style="text;html=1;align=center;verticalAlign=middle;resizable=0;points=[];autosize=1;strokeColor=none;fillColor=none;" vertex="1" parent="WIyWlLk6GJQsqaUBKTNV-1">
          <mxGeometry x="450" y="908" width="60" height="30" as="geometry" />
        </mxCell>
        <mxCell id="FWDyRuFAGnxOfG8vz_2f-10" value="GET" style="text;html=1;align=center;verticalAlign=middle;resizable=0;points=[];autosize=1;strokeColor=none;fillColor=none;" vertex="1" parent="WIyWlLk6GJQsqaUBKTNV-1">
          <mxGeometry x="465" y="948" width="50" height="30" as="geometry" />
        </mxCell>
        <mxCell id="FWDyRuFAGnxOfG8vz_2f-11" value="PUT" style="text;html=1;align=center;verticalAlign=middle;resizable=0;points=[];autosize=1;strokeColor=none;fillColor=none;" vertex="1" parent="WIyWlLk6GJQsqaUBKTNV-1">
          <mxGeometry x="455" y="1028" width="50" height="30" as="geometry" />
        </mxCell>
        <mxCell id="FWDyRuFAGnxOfG8vz_2f-12" value="DELETE/HEAD" style="text;html=1;align=center;verticalAlign=middle;resizable=0;points=[];autosize=1;strokeColor=none;fillColor=none;" vertex="1" parent="WIyWlLk6GJQsqaUBKTNV-1">
          <mxGeometry x="450" y="1068" width="110" height="30" as="geometry" />
        </mxCell>
        <mxCell id="FWDyRuFAGnxOfG8vz_2f-30" style="edgeStyle=orthogonalEdgeStyle;rounded=0;orthogonalLoop=1;jettySize=auto;html=1;" edge="1" parent="WIyWlLk6GJQsqaUBKTNV-1" source="FWDyRuFAGnxOfG8vz_2f-25" target="FWDyRuFAGnxOfG8vz_2f-29">
          <mxGeometry relative="1" as="geometry" />
        </mxCell>
        <mxCell id="FWDyRuFAGnxOfG8vz_2f-25" value="WEB" style="rounded=1;whiteSpace=wrap;html=1;" vertex="1" parent="WIyWlLk6GJQsqaUBKTNV-1">
          <mxGeometry x="160" y="1200" width="120" height="60" as="geometry" />
        </mxCell>
        <mxCell id="FWDyRuFAGnxOfG8vz_2f-31" style="edgeStyle=orthogonalEdgeStyle;rounded=0;orthogonalLoop=1;jettySize=auto;html=1;" edge="1" parent="WIyWlLk6GJQsqaUBKTNV-1" source="FWDyRuFAGnxOfG8vz_2f-28" target="FWDyRuFAGnxOfG8vz_2f-44">
          <mxGeometry relative="1" as="geometry" />
        </mxCell>
        <mxCell id="FWDyRuFAGnxOfG8vz_2f-28" value="Mobile" style="whiteSpace=wrap;html=1;" vertex="1" parent="WIyWlLk6GJQsqaUBKTNV-1">
          <mxGeometry x="160" y="1280" width="120" height="60" as="geometry" />
        </mxCell>
        <mxCell id="FWDyRuFAGnxOfG8vz_2f-38" style="edgeStyle=orthogonalEdgeStyle;rounded=0;orthogonalLoop=1;jettySize=auto;html=1;entryX=0;entryY=0.75;entryDx=0;entryDy=0;" edge="1" parent="WIyWlLk6GJQsqaUBKTNV-1" source="FWDyRuFAGnxOfG8vz_2f-29" target="FWDyRuFAGnxOfG8vz_2f-32">
          <mxGeometry relative="1" as="geometry" />
        </mxCell>
        <mxCell id="FWDyRuFAGnxOfG8vz_2f-29" value="" style="outlineConnect=0;dashed=0;verticalLabelPosition=bottom;verticalAlign=top;align=center;html=1;shape=mxgraph.aws3.api_gateway;fillColor=#D9A741;gradientColor=none;" vertex="1" parent="WIyWlLk6GJQsqaUBKTNV-1">
          <mxGeometry x="406.75" y="1200" width="76.5" height="93" as="geometry" />
        </mxCell>
        <mxCell id="FWDyRuFAGnxOfG8vz_2f-32" value="" style="rounded=1;whiteSpace=wrap;html=1;" vertex="1" parent="WIyWlLk6GJQsqaUBKTNV-1">
          <mxGeometry x="550" y="1220" width="120" height="60" as="geometry" />
        </mxCell>
        <mxCell id="FWDyRuFAGnxOfG8vz_2f-33" value="" style="rounded=1;whiteSpace=wrap;html=1;" vertex="1" parent="WIyWlLk6GJQsqaUBKTNV-1">
          <mxGeometry x="560" y="1230" width="120" height="60" as="geometry" />
        </mxCell>
        <mxCell id="FWDyRuFAGnxOfG8vz_2f-34" value="" style="rounded=1;whiteSpace=wrap;html=1;" vertex="1" parent="WIyWlLk6GJQsqaUBKTNV-1">
          <mxGeometry x="570" y="1240" width="120" height="60" as="geometry" />
        </mxCell>
        <mxCell id="FWDyRuFAGnxOfG8vz_2f-35" value="" style="rounded=1;whiteSpace=wrap;html=1;" vertex="1" parent="WIyWlLk6GJQsqaUBKTNV-1">
          <mxGeometry x="580" y="1250" width="120" height="60" as="geometry" />
        </mxCell>
        <mxCell id="FWDyRuFAGnxOfG8vz_2f-36" value="" style="rounded=1;whiteSpace=wrap;html=1;" vertex="1" parent="WIyWlLk6GJQsqaUBKTNV-1">
          <mxGeometry x="590" y="1260" width="120" height="60" as="geometry" />
        </mxCell>
        <mxCell id="FWDyRuFAGnxOfG8vz_2f-37" value="Services" style="text;html=1;align=center;verticalAlign=middle;resizable=0;points=[];autosize=1;strokeColor=none;fillColor=none;" vertex="1" parent="WIyWlLk6GJQsqaUBKTNV-1">
          <mxGeometry x="585" y="1330" width="70" height="30" as="geometry" />
        </mxCell>
        <mxCell id="FWDyRuFAGnxOfG8vz_2f-39" style="edgeStyle=orthogonalEdgeStyle;rounded=0;orthogonalLoop=1;jettySize=auto;html=1;entryX=0.013;entryY=0.9;entryDx=0;entryDy=0;entryPerimeter=0;" edge="1" parent="WIyWlLk6GJQsqaUBKTNV-1" source="FWDyRuFAGnxOfG8vz_2f-29" target="FWDyRuFAGnxOfG8vz_2f-32">
          <mxGeometry relative="1" as="geometry" />
        </mxCell>
        <mxCell id="FWDyRuFAGnxOfG8vz_2f-40" style="edgeStyle=orthogonalEdgeStyle;rounded=0;orthogonalLoop=1;jettySize=auto;html=1;entryX=0.004;entryY=0.883;entryDx=0;entryDy=0;entryPerimeter=0;" edge="1" parent="WIyWlLk6GJQsqaUBKTNV-1" source="FWDyRuFAGnxOfG8vz_2f-29" target="FWDyRuFAGnxOfG8vz_2f-33">
          <mxGeometry relative="1" as="geometry" />
        </mxCell>
        <mxCell id="FWDyRuFAGnxOfG8vz_2f-41" style="edgeStyle=orthogonalEdgeStyle;rounded=0;orthogonalLoop=1;jettySize=auto;html=1;entryX=0.079;entryY=1.067;entryDx=0;entryDy=0;entryPerimeter=0;" edge="1" parent="WIyWlLk6GJQsqaUBKTNV-1" source="FWDyRuFAGnxOfG8vz_2f-29" target="FWDyRuFAGnxOfG8vz_2f-33">
          <mxGeometry relative="1" as="geometry" />
        </mxCell>
        <mxCell id="FWDyRuFAGnxOfG8vz_2f-42" value="1. Connect different clients&lt;div&gt;2. Security : Authorization and Authorization&lt;/div&gt;&lt;div&gt;3. Protocol Transaction : https (SSL)&amp;nbsp;&lt;/div&gt;&lt;div&gt;4. Common functionality offload:&amp;nbsp;&lt;/div&gt;&lt;div&gt;&lt;br&gt;&lt;/div&gt;&lt;div&gt;BFF : Back end for Front end&amp;nbsp;&lt;/div&gt;" style="text;html=1;align=center;verticalAlign=middle;resizable=0;points=[];autosize=1;strokeColor=none;fillColor=none;" vertex="1" parent="WIyWlLk6GJQsqaUBKTNV-1">
          <mxGeometry x="320" y="1430" width="260" height="100" as="geometry" />
        </mxCell>
        <mxCell id="FWDyRuFAGnxOfG8vz_2f-46" style="edgeStyle=orthogonalEdgeStyle;rounded=0;orthogonalLoop=1;jettySize=auto;html=1;entryX=0;entryY=1;entryDx=0;entryDy=0;" edge="1" parent="WIyWlLk6GJQsqaUBKTNV-1" source="FWDyRuFAGnxOfG8vz_2f-44" target="FWDyRuFAGnxOfG8vz_2f-36">
          <mxGeometry relative="1" as="geometry" />
        </mxCell>
        <mxCell id="FWDyRuFAGnxOfG8vz_2f-44" value="" style="outlineConnect=0;dashed=0;verticalLabelPosition=bottom;verticalAlign=top;align=center;html=1;shape=mxgraph.aws3.api_gateway;fillColor=#D9A741;gradientColor=none;" vertex="1" parent="WIyWlLk6GJQsqaUBKTNV-1">
          <mxGeometry x="406.75" y="1310" width="76.5" height="93" as="geometry" />
        </mxCell>
        <mxCell id="FWDyRuFAGnxOfG8vz_2f-45" value="BFF" style="text;html=1;align=center;verticalAlign=middle;resizable=0;points=[];autosize=1;strokeColor=none;fillColor=none;" vertex="1" parent="WIyWlLk6GJQsqaUBKTNV-1">
          <mxGeometry x="445" y="1408" width="50" height="30" as="geometry" />
        </mxCell>
        <mxCell id="FWDyRuFAGnxOfG8vz_2f-47" value="Service Discovery&lt;div&gt;language agnostic&lt;/div&gt;" style="text;html=1;align=center;verticalAlign=middle;resizable=0;points=[];autosize=1;strokeColor=none;fillColor=none;" vertex="1" parent="WIyWlLk6GJQsqaUBKTNV-1">
          <mxGeometry x="150" y="1583" width="120" height="40" as="geometry" />
        </mxCell>
        <mxCell id="FWDyRuFAGnxOfG8vz_2f-48" value="API Gateway" style="text;html=1;align=center;verticalAlign=middle;resizable=0;points=[];autosize=1;strokeColor=none;fillColor=none;" vertex="1" parent="WIyWlLk6GJQsqaUBKTNV-1">
          <mxGeometry x="150" y="1160" width="90" height="30" as="geometry" />
        </mxCell>
        <mxCell id="FWDyRuFAGnxOfG8vz_2f-54" style="edgeStyle=orthogonalEdgeStyle;rounded=0;orthogonalLoop=1;jettySize=auto;html=1;entryX=0;entryY=0.75;entryDx=0;entryDy=0;" edge="1" parent="WIyWlLk6GJQsqaUBKTNV-1" source="FWDyRuFAGnxOfG8vz_2f-49" target="FWDyRuFAGnxOfG8vz_2f-50">
          <mxGeometry relative="1" as="geometry" />
        </mxCell>
        <mxCell id="FWDyRuFAGnxOfG8vz_2f-55" style="edgeStyle=orthogonalEdgeStyle;rounded=0;orthogonalLoop=1;jettySize=auto;html=1;entryX=0;entryY=0.75;entryDx=0;entryDy=0;" edge="1" parent="WIyWlLk6GJQsqaUBKTNV-1" source="FWDyRuFAGnxOfG8vz_2f-49" target="FWDyRuFAGnxOfG8vz_2f-51">
          <mxGeometry relative="1" as="geometry" />
        </mxCell>
        <mxCell id="FWDyRuFAGnxOfG8vz_2f-56" style="edgeStyle=orthogonalEdgeStyle;rounded=0;orthogonalLoop=1;jettySize=auto;html=1;entryX=0;entryY=0.5;entryDx=0;entryDy=0;" edge="1" parent="WIyWlLk6GJQsqaUBKTNV-1" source="FWDyRuFAGnxOfG8vz_2f-49" target="FWDyRuFAGnxOfG8vz_2f-52">
          <mxGeometry relative="1" as="geometry" />
        </mxCell>
        <mxCell id="FWDyRuFAGnxOfG8vz_2f-49" value="A - Address&lt;div&gt;B - Address&lt;/div&gt;&lt;div&gt;C - Address&lt;/div&gt;&lt;div&gt;&lt;br&gt;&lt;/div&gt;" style="whiteSpace=wrap;html=1;" vertex="1" parent="WIyWlLk6GJQsqaUBKTNV-1">
          <mxGeometry x="160" y="1650" width="180" height="160" as="geometry" />
        </mxCell>
        <mxCell id="FWDyRuFAGnxOfG8vz_2f-50" value="Service 1" style="whiteSpace=wrap;html=1;" vertex="1" parent="WIyWlLk6GJQsqaUBKTNV-1">
          <mxGeometry x="450" y="1598" width="120" height="20" as="geometry" />
        </mxCell>
        <mxCell id="FWDyRuFAGnxOfG8vz_2f-51" value="Service 2" style="whiteSpace=wrap;html=1;" vertex="1" parent="WIyWlLk6GJQsqaUBKTNV-1">
          <mxGeometry x="450" y="1630" width="120" height="20" as="geometry" />
        </mxCell>
        <mxCell id="FWDyRuFAGnxOfG8vz_2f-52" value="Service 3" style="whiteSpace=wrap;html=1;" vertex="1" parent="WIyWlLk6GJQsqaUBKTNV-1">
          <mxGeometry x="450" y="1660" width="120" height="20" as="geometry" />
        </mxCell>
        <mxCell id="FWDyRuFAGnxOfG8vz_2f-57" value="Registroy" style="text;html=1;align=center;verticalAlign=middle;resizable=0;points=[];autosize=1;strokeColor=none;fillColor=none;" vertex="1" parent="WIyWlLk6GJQsqaUBKTNV-1">
          <mxGeometry x="225" y="1618" width="70" height="30" as="geometry" />
        </mxCell>
        <mxCell id="FWDyRuFAGnxOfG8vz_2f-61" value="" style="edgeStyle=orthogonalEdgeStyle;rounded=0;orthogonalLoop=1;jettySize=auto;html=1;entryX=0;entryY=0.438;entryDx=0;entryDy=0;entryPerimeter=0;" edge="1" parent="WIyWlLk6GJQsqaUBKTNV-1" source="FWDyRuFAGnxOfG8vz_2f-58" target="FWDyRuFAGnxOfG8vz_2f-49">
          <mxGeometry relative="1" as="geometry">
            <mxPoint x="105" y="1700" as="targetPoint" />
          </mxGeometry>
        </mxCell>
        <mxCell id="FWDyRuFAGnxOfG8vz_2f-58" value="A" style="text;html=1;align=center;verticalAlign=middle;resizable=0;points=[];autosize=1;strokeColor=none;fillColor=none;" vertex="1" parent="WIyWlLk6GJQsqaUBKTNV-1">
          <mxGeometry x="5" y="1708" width="30" height="30" as="geometry" />
        </mxCell>
        <mxCell id="FWDyRuFAGnxOfG8vz_2f-62" style="edgeStyle=orthogonalEdgeStyle;rounded=0;orthogonalLoop=1;jettySize=auto;html=1;entryX=0;entryY=0.5;entryDx=0;entryDy=0;" edge="1" parent="WIyWlLk6GJQsqaUBKTNV-1" source="FWDyRuFAGnxOfG8vz_2f-59" target="FWDyRuFAGnxOfG8vz_2f-49">
          <mxGeometry relative="1" as="geometry">
            <mxPoint x="101.5" y="1700" as="targetPoint" />
          </mxGeometry>
        </mxCell>
        <mxCell id="FWDyRuFAGnxOfG8vz_2f-59" value="B" style="text;html=1;align=center;verticalAlign=middle;resizable=0;points=[];autosize=1;strokeColor=none;fillColor=none;" vertex="1" parent="WIyWlLk6GJQsqaUBKTNV-1">
          <mxGeometry x="5" y="1808" width="30" height="30" as="geometry" />
        </mxCell>
        <mxCell id="FWDyRuFAGnxOfG8vz_2f-64" value="Registry patter" style="text;html=1;align=center;verticalAlign=middle;resizable=0;points=[];autosize=1;strokeColor=none;fillColor=none;" vertex="1" parent="WIyWlLk6GJQsqaUBKTNV-1">
          <mxGeometry x="180" y="1818" width="100" height="30" as="geometry" />
        </mxCell>
        <mxCell id="FWDyRuFAGnxOfG8vz_2f-71" value="" style="edgeStyle=orthogonalEdgeStyle;rounded=0;orthogonalLoop=1;jettySize=auto;html=1;" edge="1" parent="WIyWlLk6GJQsqaUBKTNV-1" source="FWDyRuFAGnxOfG8vz_2f-66" target="FWDyRuFAGnxOfG8vz_2f-70">
          <mxGeometry relative="1" as="geometry" />
        </mxCell>
        <mxCell id="FWDyRuFAGnxOfG8vz_2f-66" value="SAGA" style="text;html=1;align=center;verticalAlign=middle;resizable=0;points=[];autosize=1;strokeColor=none;fillColor=none;" vertex="1" parent="WIyWlLk6GJQsqaUBKTNV-1">
          <mxGeometry x="150" y="1948" width="60" height="30" as="geometry" />
        </mxCell>
        <mxCell id="FWDyRuFAGnxOfG8vz_2f-67" value="Atomic&lt;div&gt;Consistent&lt;/div&gt;&lt;div&gt;Isolated&lt;/div&gt;&lt;div&gt;Durable&lt;/div&gt;" style="text;html=1;align=center;verticalAlign=middle;resizable=0;points=[];autosize=1;strokeColor=none;fillColor=none;" vertex="1" parent="WIyWlLk6GJQsqaUBKTNV-1">
          <mxGeometry x="145" y="1990" width="80" height="70" as="geometry" />
        </mxCell>
        <mxCell id="FWDyRuFAGnxOfG8vz_2f-70" value="&lt;div style=&quot;text-align: start;&quot;&gt;&lt;font face=&quot;Google Sans, Arial, sans-serif&quot; color=&quot;#474747&quot;&gt;&lt;span style=&quot;font-size: 10px; background-color: rgb(255, 255, 255);&quot;&gt;The Saga is a disturbed management approach that breaks down a complex transaction into a series of smaller or local transactions, and they must be coordinated to ensure data consistency across the entire system&amp;nbsp;&lt;/span&gt;&lt;/font&gt;&lt;/div&gt;" style="whiteSpace=wrap;html=1;" vertex="1" parent="WIyWlLk6GJQsqaUBKTNV-1">
          <mxGeometry x="260" y="1919.5" width="330" height="87" as="geometry" />
        </mxCell>
        <mxCell id="FWDyRuFAGnxOfG8vz_2f-72" value="Long iive to small transactions" style="text;html=1;align=center;verticalAlign=middle;resizable=0;points=[];autosize=1;strokeColor=none;fillColor=none;" vertex="1" parent="WIyWlLk6GJQsqaUBKTNV-1">
          <mxGeometry x="220" y="1878" width="180" height="30" as="geometry" />
        </mxCell>
        <mxCell id="FWDyRuFAGnxOfG8vz_2f-73" value="Choreography" style="text;html=1;align=center;verticalAlign=middle;resizable=0;points=[];autosize=1;strokeColor=none;fillColor=none;" vertex="1" parent="WIyWlLk6GJQsqaUBKTNV-1">
          <mxGeometry x="130" y="2078" width="100" height="30" as="geometry" />
        </mxCell>
        <mxCell id="FWDyRuFAGnxOfG8vz_2f-77" value="" style="edgeStyle=orthogonalEdgeStyle;rounded=0;orthogonalLoop=1;jettySize=auto;html=1;" edge="1" parent="WIyWlLk6GJQsqaUBKTNV-1" source="FWDyRuFAGnxOfG8vz_2f-74" target="FWDyRuFAGnxOfG8vz_2f-75">
          <mxGeometry relative="1" as="geometry" />
        </mxCell>
        <mxCell id="FWDyRuFAGnxOfG8vz_2f-74" value="Service A" style="whiteSpace=wrap;html=1;fillColor=#d5e8d4;strokeColor=#82b366;" vertex="1" parent="WIyWlLk6GJQsqaUBKTNV-1">
          <mxGeometry x="260" y="2115" width="100" height="40" as="geometry" />
        </mxCell>
        <mxCell id="FWDyRuFAGnxOfG8vz_2f-79" value="" style="edgeStyle=orthogonalEdgeStyle;rounded=0;orthogonalLoop=1;jettySize=auto;html=1;" edge="1" parent="WIyWlLk6GJQsqaUBKTNV-1" source="FWDyRuFAGnxOfG8vz_2f-75" target="FWDyRuFAGnxOfG8vz_2f-76">
          <mxGeometry relative="1" as="geometry" />
        </mxCell>
        <mxCell id="FWDyRuFAGnxOfG8vz_2f-93" value="" style="edgeStyle=orthogonalEdgeStyle;rounded=0;orthogonalLoop=1;jettySize=auto;html=1;" edge="1" parent="WIyWlLk6GJQsqaUBKTNV-1" source="FWDyRuFAGnxOfG8vz_2f-75">
          <mxGeometry relative="1" as="geometry">
            <mxPoint x="455" y="2060" as="targetPoint" />
          </mxGeometry>
        </mxCell>
        <mxCell id="FWDyRuFAGnxOfG8vz_2f-75" value="Service B" style="whiteSpace=wrap;html=1;fillColor=#fff2cc;strokeColor=#d6b656;" vertex="1" parent="WIyWlLk6GJQsqaUBKTNV-1">
          <mxGeometry x="400" y="2115" width="100" height="40" as="geometry" />
        </mxCell>
        <mxCell id="FWDyRuFAGnxOfG8vz_2f-76" value="Service C" style="whiteSpace=wrap;html=1;fillColor=#dae8fc;strokeColor=#6c8ebf;" vertex="1" parent="WIyWlLk6GJQsqaUBKTNV-1">
          <mxGeometry x="560" y="2115" width="100" height="40" as="geometry" />
        </mxCell>
        <mxCell id="FWDyRuFAGnxOfG8vz_2f-80" value="Continution" style="text;html=1;align=center;verticalAlign=middle;resizable=0;points=[];autosize=1;strokeColor=none;fillColor=none;" vertex="1" parent="WIyWlLk6GJQsqaUBKTNV-1">
          <mxGeometry x="335" y="2090" width="80" height="30" as="geometry" />
        </mxCell>
        <mxCell id="FWDyRuFAGnxOfG8vz_2f-81" value="Continution" style="text;html=1;align=center;verticalAlign=middle;resizable=0;points=[];autosize=1;strokeColor=none;fillColor=none;" vertex="1" parent="WIyWlLk6GJQsqaUBKTNV-1">
          <mxGeometry x="494" y="2090" width="80" height="30" as="geometry" />
        </mxCell>
        <mxCell id="FWDyRuFAGnxOfG8vz_2f-85" value="" style="curved=1;endArrow=classic;html=1;rounded=0;exitX=0.5;exitY=1;exitDx=0;exitDy=0;entryX=0.13;entryY=1.013;entryDx=0;entryDy=0;entryPerimeter=0;" edge="1" parent="WIyWlLk6GJQsqaUBKTNV-1" source="FWDyRuFAGnxOfG8vz_2f-75" target="FWDyRuFAGnxOfG8vz_2f-74">
          <mxGeometry width="50" height="50" relative="1" as="geometry">
            <mxPoint x="265" y="2212" as="sourcePoint" />
            <mxPoint x="315" y="2162" as="targetPoint" />
            <Array as="points">
              <mxPoint x="315" y="2212" />
              <mxPoint x="300" y="2202" />
              <mxPoint x="265" y="2162" />
            </Array>
          </mxGeometry>
        </mxCell>
        <mxCell id="FWDyRuFAGnxOfG8vz_2f-86" value="" style="curved=1;endArrow=classic;html=1;rounded=0;exitX=0.5;exitY=1;exitDx=0;exitDy=0;entryX=0.13;entryY=1.013;entryDx=0;entryDy=0;entryPerimeter=0;" edge="1" parent="WIyWlLk6GJQsqaUBKTNV-1">
          <mxGeometry width="50" height="50" relative="1" as="geometry">
            <mxPoint x="645" y="2155" as="sourcePoint" />
            <mxPoint x="468" y="2156" as="targetPoint" />
            <Array as="points">
              <mxPoint x="510" y="2212" />
              <mxPoint x="495" y="2202" />
              <mxPoint x="460" y="2162" />
            </Array>
          </mxGeometry>
        </mxCell>
        <mxCell id="FWDyRuFAGnxOfG8vz_2f-87" value="Compensation" style="text;html=1;align=center;verticalAlign=middle;resizable=0;points=[];autosize=1;strokeColor=none;fillColor=none;" vertex="1" parent="WIyWlLk6GJQsqaUBKTNV-1">
          <mxGeometry x="260" y="2200" width="100" height="30" as="geometry" />
        </mxCell>
        <mxCell id="FWDyRuFAGnxOfG8vz_2f-88" value="Compensation" style="text;html=1;align=center;verticalAlign=middle;resizable=0;points=[];autosize=1;strokeColor=none;fillColor=none;" vertex="1" parent="WIyWlLk6GJQsqaUBKTNV-1">
          <mxGeometry x="460" y="2200" width="100" height="30" as="geometry" />
        </mxCell>
        <mxCell id="FWDyRuFAGnxOfG8vz_2f-91" style="edgeStyle=orthogonalEdgeStyle;rounded=0;orthogonalLoop=1;jettySize=auto;html=1;exitX=-0.05;exitY=0.149;exitDx=0;exitDy=0;exitPerimeter=0;fontSize=9;" edge="1" parent="WIyWlLk6GJQsqaUBKTNV-1" source="FWDyRuFAGnxOfG8vz_2f-89">
          <mxGeometry relative="1" as="geometry">
            <mxPoint x="310" y="2110" as="targetPoint" />
          </mxGeometry>
        </mxCell>
        <mxCell id="FWDyRuFAGnxOfG8vz_2f-96" style="edgeStyle=orthogonalEdgeStyle;rounded=0;orthogonalLoop=1;jettySize=auto;html=1;exitX=-0.05;exitY=0.853;exitDx=0;exitDy=0;exitPerimeter=0;" edge="1" parent="WIyWlLk6GJQsqaUBKTNV-1" source="FWDyRuFAGnxOfG8vz_2f-89" target="FWDyRuFAGnxOfG8vz_2f-76">
          <mxGeometry relative="1" as="geometry" />
        </mxCell>
        <mxCell id="FWDyRuFAGnxOfG8vz_2f-89" value="" style="shape=cylinder3;whiteSpace=wrap;html=1;boundedLbl=1;backgroundOutline=1;size=15;rotation=-90;" vertex="1" parent="WIyWlLk6GJQsqaUBKTNV-1">
          <mxGeometry x="438.75" y="1836.25" width="30" height="417.5" as="geometry" />
        </mxCell>
        <mxCell id="FWDyRuFAGnxOfG8vz_2f-92" style="edgeStyle=orthogonalEdgeStyle;rounded=0;orthogonalLoop=1;jettySize=auto;html=1;entryX=0.117;entryY=0.158;entryDx=0;entryDy=0;entryPerimeter=0;" edge="1" parent="WIyWlLk6GJQsqaUBKTNV-1" source="FWDyRuFAGnxOfG8vz_2f-74" target="FWDyRuFAGnxOfG8vz_2f-89">
          <mxGeometry relative="1" as="geometry" />
        </mxCell>
        <mxCell id="FWDyRuFAGnxOfG8vz_2f-94" style="edgeStyle=orthogonalEdgeStyle;rounded=0;orthogonalLoop=1;jettySize=auto;html=1;entryX=0.6;entryY=0.013;entryDx=0;entryDy=0;entryPerimeter=0;" edge="1" parent="WIyWlLk6GJQsqaUBKTNV-1" target="FWDyRuFAGnxOfG8vz_2f-75">
          <mxGeometry relative="1" as="geometry">
            <mxPoint x="455" y="2060" as="sourcePoint" />
          </mxGeometry>
        </mxCell>
        <mxCell id="FWDyRuFAGnxOfG8vz_2f-95" style="edgeStyle=orthogonalEdgeStyle;rounded=0;orthogonalLoop=1;jettySize=auto;html=1;entryX=-0.017;entryY=0.865;entryDx=0;entryDy=0;entryPerimeter=0;" edge="1" parent="WIyWlLk6GJQsqaUBKTNV-1" source="FWDyRuFAGnxOfG8vz_2f-76" target="FWDyRuFAGnxOfG8vz_2f-89">
          <mxGeometry relative="1" as="geometry" />
        </mxCell>
        <mxCell id="FWDyRuFAGnxOfG8vz_2f-97" value="Success&lt;div style=&quot;font-size: 9px;&quot;&gt;Event&lt;/div&gt;" style="text;html=1;align=center;verticalAlign=middle;resizable=0;points=[];autosize=1;strokeColor=#666666;fillColor=#f5f5f5;fontColor=#333333;fontSize=9;" vertex="1" parent="WIyWlLk6GJQsqaUBKTNV-1">
          <mxGeometry x="245" y="2068" width="60" height="40" as="geometry" />
        </mxCell>
        <mxCell id="FWDyRuFAGnxOfG8vz_2f-99" value="Failure&lt;div style=&quot;font-size: 8px;&quot;&gt;event&lt;/div&gt;" style="text;html=1;align=center;verticalAlign=middle;resizable=0;points=[];autosize=1;strokeColor=#d79b00;fillColor=#ffe6cc;fontSize=8;" vertex="1" parent="WIyWlLk6GJQsqaUBKTNV-1">
          <mxGeometry x="340" y="2065" width="50" height="30" as="geometry" />
        </mxCell>
        <mxCell id="FWDyRuFAGnxOfG8vz_2f-100" value="Failure&lt;div style=&quot;font-size: 8px;&quot;&gt;event&lt;/div&gt;" style="text;html=1;align=center;verticalAlign=middle;resizable=0;points=[];autosize=1;strokeColor=#d79b00;fillColor=#ffe6cc;fontSize=8;" vertex="1" parent="WIyWlLk6GJQsqaUBKTNV-1">
          <mxGeometry x="470" y="2065" width="50" height="30" as="geometry" />
        </mxCell>
        <mxCell id="FWDyRuFAGnxOfG8vz_2f-101" value="Failure&lt;div style=&quot;font-size: 8px;&quot;&gt;event&lt;/div&gt;" style="text;html=1;align=center;verticalAlign=middle;resizable=0;points=[];autosize=1;strokeColor=#d79b00;fillColor=#ffe6cc;fontSize=8;" vertex="1" parent="WIyWlLk6GJQsqaUBKTNV-1">
          <mxGeometry x="625" y="2073" width="50" height="30" as="geometry" />
        </mxCell>
        <mxCell id="FWDyRuFAGnxOfG8vz_2f-102" value="&lt;font style=&quot;font-size: 8px;&quot;&gt;Success&lt;/font&gt;&lt;div style=&quot;font-size: 8px;&quot;&gt;&lt;font style=&quot;font-size: 8px;&quot;&gt;Event&lt;/font&gt;&lt;/div&gt;" style="text;html=1;align=center;verticalAlign=middle;resizable=0;points=[];autosize=1;strokeColor=#666666;fillColor=#f5f5f5;fontColor=#333333;fontSize=8;" vertex="1" parent="WIyWlLk6GJQsqaUBKTNV-1">
          <mxGeometry x="400" y="2073" width="50" height="30" as="geometry" />
        </mxCell>
        <mxCell id="FWDyRuFAGnxOfG8vz_2f-103" value="Success&lt;div style=&quot;font-size: 8px;&quot;&gt;Event&lt;/div&gt;" style="text;html=1;align=center;verticalAlign=middle;resizable=0;points=[];autosize=1;strokeColor=#666666;fillColor=#f5f5f5;fontColor=#333333;fontSize=8;" vertex="1" parent="WIyWlLk6GJQsqaUBKTNV-1">
          <mxGeometry x="540" y="2065" width="50" height="30" as="geometry" />
        </mxCell>
        <mxCell id="FWDyRuFAGnxOfG8vz_2f-104" value="Orchestration" style="text;html=1;align=center;verticalAlign=middle;resizable=0;points=[];autosize=1;strokeColor=none;fillColor=none;" vertex="1" parent="WIyWlLk6GJQsqaUBKTNV-1">
          <mxGeometry x="120" y="2288" width="100" height="30" as="geometry" />
        </mxCell>
        <mxCell id="FWDyRuFAGnxOfG8vz_2f-105" value="Centralized" style="text;html=1;align=center;verticalAlign=middle;resizable=0;points=[];autosize=1;strokeColor=none;fillColor=none;" vertex="1" parent="WIyWlLk6GJQsqaUBKTNV-1">
          <mxGeometry x="130" y="2258" width="80" height="30" as="geometry" />
        </mxCell>
        <mxCell id="FWDyRuFAGnxOfG8vz_2f-106" value="Complexity:&amp;nbsp;&amp;nbsp;" style="text;html=1;align=center;verticalAlign=middle;resizable=0;points=[];autosize=1;strokeColor=none;fillColor=none;" vertex="1" parent="WIyWlLk6GJQsqaUBKTNV-1">
          <mxGeometry x="135" y="2318" width="90" height="30" as="geometry" />
        </mxCell>
        <mxCell id="FWDyRuFAGnxOfG8vz_2f-107" value="Centralized" style="text;html=1;align=center;verticalAlign=middle;resizable=0;points=[];autosize=1;strokeColor=none;fillColor=none;" vertex="1" parent="WIyWlLk6GJQsqaUBKTNV-1">
          <mxGeometry x="130" y="2258" width="80" height="30" as="geometry" />
        </mxCell>
        <mxCell id="FWDyRuFAGnxOfG8vz_2f-108" value="De Centralised" style="text;html=1;align=center;verticalAlign=middle;resizable=0;points=[];autosize=1;strokeColor=none;fillColor=none;" vertex="1" parent="WIyWlLk6GJQsqaUBKTNV-1">
          <mxGeometry x="130" y="2115" width="100" height="30" as="geometry" />
        </mxCell>
        <mxCell id="FWDyRuFAGnxOfG8vz_2f-132" style="edgeStyle=orthogonalEdgeStyle;rounded=0;orthogonalLoop=1;jettySize=auto;html=1;" edge="1" parent="WIyWlLk6GJQsqaUBKTNV-1" source="FWDyRuFAGnxOfG8vz_2f-109">
          <mxGeometry relative="1" as="geometry">
            <mxPoint x="600" y="2260" as="targetPoint" />
          </mxGeometry>
        </mxCell>
        <mxCell id="FWDyRuFAGnxOfG8vz_2f-133" style="edgeStyle=orthogonalEdgeStyle;rounded=0;orthogonalLoop=1;jettySize=auto;html=1;entryX=0;entryY=0.75;entryDx=0;entryDy=0;" edge="1" parent="WIyWlLk6GJQsqaUBKTNV-1" source="FWDyRuFAGnxOfG8vz_2f-109" target="FWDyRuFAGnxOfG8vz_2f-129">
          <mxGeometry relative="1" as="geometry" />
        </mxCell>
        <mxCell id="FWDyRuFAGnxOfG8vz_2f-134" style="edgeStyle=orthogonalEdgeStyle;rounded=0;orthogonalLoop=1;jettySize=auto;html=1;" edge="1" parent="WIyWlLk6GJQsqaUBKTNV-1" source="FWDyRuFAGnxOfG8vz_2f-109" target="FWDyRuFAGnxOfG8vz_2f-130">
          <mxGeometry relative="1" as="geometry" />
        </mxCell>
        <mxCell id="FWDyRuFAGnxOfG8vz_2f-135" style="edgeStyle=orthogonalEdgeStyle;rounded=0;orthogonalLoop=1;jettySize=auto;html=1;entryX=0;entryY=0.75;entryDx=0;entryDy=0;" edge="1" parent="WIyWlLk6GJQsqaUBKTNV-1" source="FWDyRuFAGnxOfG8vz_2f-109" target="FWDyRuFAGnxOfG8vz_2f-131">
          <mxGeometry relative="1" as="geometry" />
        </mxCell>
        <mxCell id="FWDyRuFAGnxOfG8vz_2f-109" value="" style="rounded=0;whiteSpace=wrap;html=1;" vertex="1" parent="WIyWlLk6GJQsqaUBKTNV-1">
          <mxGeometry x="280" y="2253.75" width="260" height="280" as="geometry" />
        </mxCell>
        <mxCell id="FWDyRuFAGnxOfG8vz_2f-113" value="" style="edgeStyle=orthogonalEdgeStyle;rounded=0;orthogonalLoop=1;jettySize=auto;html=1;" edge="1" parent="WIyWlLk6GJQsqaUBKTNV-1" source="FWDyRuFAGnxOfG8vz_2f-110" target="FWDyRuFAGnxOfG8vz_2f-112">
          <mxGeometry relative="1" as="geometry" />
        </mxCell>
        <mxCell id="FWDyRuFAGnxOfG8vz_2f-110" value="" style="ellipse;whiteSpace=wrap;html=1;" vertex="1" parent="WIyWlLk6GJQsqaUBKTNV-1">
          <mxGeometry x="290" y="2260" width="60" height="40" as="geometry" />
        </mxCell>
        <mxCell id="FWDyRuFAGnxOfG8vz_2f-123" value="" style="edgeStyle=orthogonalEdgeStyle;rounded=0;orthogonalLoop=1;jettySize=auto;html=1;" edge="1" parent="WIyWlLk6GJQsqaUBKTNV-1" source="FWDyRuFAGnxOfG8vz_2f-111" target="FWDyRuFAGnxOfG8vz_2f-122">
          <mxGeometry relative="1" as="geometry" />
        </mxCell>
        <mxCell id="FWDyRuFAGnxOfG8vz_2f-111" value="" style="ellipse;whiteSpace=wrap;html=1;" vertex="1" parent="WIyWlLk6GJQsqaUBKTNV-1">
          <mxGeometry x="378.75" y="2270" width="60" height="40" as="geometry" />
        </mxCell>
        <mxCell id="FWDyRuFAGnxOfG8vz_2f-115" value="" style="edgeStyle=orthogonalEdgeStyle;rounded=0;orthogonalLoop=1;jettySize=auto;html=1;" edge="1" parent="WIyWlLk6GJQsqaUBKTNV-1" source="FWDyRuFAGnxOfG8vz_2f-112" target="FWDyRuFAGnxOfG8vz_2f-114">
          <mxGeometry relative="1" as="geometry" />
        </mxCell>
        <mxCell id="FWDyRuFAGnxOfG8vz_2f-112" value="" style="whiteSpace=wrap;html=1;" vertex="1" parent="WIyWlLk6GJQsqaUBKTNV-1">
          <mxGeometry x="268.75" y="2338" width="110" height="20" as="geometry" />
        </mxCell>
        <mxCell id="FWDyRuFAGnxOfG8vz_2f-117" value="" style="edgeStyle=orthogonalEdgeStyle;rounded=0;orthogonalLoop=1;jettySize=auto;html=1;" edge="1" parent="WIyWlLk6GJQsqaUBKTNV-1" source="FWDyRuFAGnxOfG8vz_2f-114" target="FWDyRuFAGnxOfG8vz_2f-116">
          <mxGeometry relative="1" as="geometry" />
        </mxCell>
        <mxCell id="FWDyRuFAGnxOfG8vz_2f-114" value="" style="whiteSpace=wrap;html=1;" vertex="1" parent="WIyWlLk6GJQsqaUBKTNV-1">
          <mxGeometry x="280" y="2390" width="110" height="20" as="geometry" />
        </mxCell>
        <mxCell id="FWDyRuFAGnxOfG8vz_2f-119" value="" style="edgeStyle=orthogonalEdgeStyle;rounded=0;orthogonalLoop=1;jettySize=auto;html=1;" edge="1" parent="WIyWlLk6GJQsqaUBKTNV-1" source="FWDyRuFAGnxOfG8vz_2f-116" target="FWDyRuFAGnxOfG8vz_2f-118">
          <mxGeometry relative="1" as="geometry" />
        </mxCell>
        <mxCell id="FWDyRuFAGnxOfG8vz_2f-116" value="" style="whiteSpace=wrap;html=1;" vertex="1" parent="WIyWlLk6GJQsqaUBKTNV-1">
          <mxGeometry x="280" y="2440" width="110" height="20" as="geometry" />
        </mxCell>
        <mxCell id="FWDyRuFAGnxOfG8vz_2f-118" value="" style="ellipse;whiteSpace=wrap;html=1;" vertex="1" parent="WIyWlLk6GJQsqaUBKTNV-1">
          <mxGeometry x="290" y="2490" width="80" height="50" as="geometry" />
        </mxCell>
        <mxCell id="FWDyRuFAGnxOfG8vz_2f-125" value="" style="edgeStyle=orthogonalEdgeStyle;rounded=0;orthogonalLoop=1;jettySize=auto;html=1;" edge="1" parent="WIyWlLk6GJQsqaUBKTNV-1" source="FWDyRuFAGnxOfG8vz_2f-122" target="FWDyRuFAGnxOfG8vz_2f-124">
          <mxGeometry relative="1" as="geometry" />
        </mxCell>
        <mxCell id="FWDyRuFAGnxOfG8vz_2f-122" value="" style="whiteSpace=wrap;html=1;" vertex="1" parent="WIyWlLk6GJQsqaUBKTNV-1">
          <mxGeometry x="385" y="2338" width="110" height="20" as="geometry" />
        </mxCell>
        <mxCell id="FWDyRuFAGnxOfG8vz_2f-127" value="" style="edgeStyle=orthogonalEdgeStyle;rounded=0;orthogonalLoop=1;jettySize=auto;html=1;" edge="1" parent="WIyWlLk6GJQsqaUBKTNV-1" source="FWDyRuFAGnxOfG8vz_2f-124" target="FWDyRuFAGnxOfG8vz_2f-126">
          <mxGeometry relative="1" as="geometry" />
        </mxCell>
        <mxCell id="FWDyRuFAGnxOfG8vz_2f-124" value="" style="whiteSpace=wrap;html=1;" vertex="1" parent="WIyWlLk6GJQsqaUBKTNV-1">
          <mxGeometry x="384" y="2383.75" width="110" height="20" as="geometry" />
        </mxCell>
        <mxCell id="FWDyRuFAGnxOfG8vz_2f-126" value="" style="whiteSpace=wrap;html=1;" vertex="1" parent="WIyWlLk6GJQsqaUBKTNV-1">
          <mxGeometry x="390" y="2440" width="110" height="20" as="geometry" />
        </mxCell>
        <mxCell id="FWDyRuFAGnxOfG8vz_2f-128" value="Service C" style="whiteSpace=wrap;html=1;fillColor=#dae8fc;strokeColor=#6c8ebf;" vertex="1" parent="WIyWlLk6GJQsqaUBKTNV-1">
          <mxGeometry x="610" y="2250" width="100" height="40" as="geometry" />
        </mxCell>
        <mxCell id="FWDyRuFAGnxOfG8vz_2f-129" value="Service C" style="whiteSpace=wrap;html=1;fillColor=#dae8fc;strokeColor=#6c8ebf;" vertex="1" parent="WIyWlLk6GJQsqaUBKTNV-1">
          <mxGeometry x="610" y="2300" width="100" height="40" as="geometry" />
        </mxCell>
        <mxCell id="FWDyRuFAGnxOfG8vz_2f-130" value="Service C" style="whiteSpace=wrap;html=1;fillColor=#dae8fc;strokeColor=#6c8ebf;" vertex="1" parent="WIyWlLk6GJQsqaUBKTNV-1">
          <mxGeometry x="610" y="2348" width="100" height="40" as="geometry" />
        </mxCell>
        <mxCell id="FWDyRuFAGnxOfG8vz_2f-131" value="Service C" style="whiteSpace=wrap;html=1;fillColor=#dae8fc;strokeColor=#6c8ebf;" vertex="1" parent="WIyWlLk6GJQsqaUBKTNV-1">
          <mxGeometry x="610" y="2400" width="100" height="40" as="geometry" />
        </mxCell>
        <mxCell id="FWDyRuFAGnxOfG8vz_2f-136" value="CQRS" style="text;html=1;align=center;verticalAlign=middle;resizable=0;points=[];autosize=1;strokeColor=none;fillColor=none;" vertex="1" parent="WIyWlLk6GJQsqaUBKTNV-1">
          <mxGeometry x="150" y="2668" width="60" height="30" as="geometry" />
        </mxCell>
        <mxCell id="FWDyRuFAGnxOfG8vz_2f-137" value="Read" style="whiteSpace=wrap;html=1;" vertex="1" parent="WIyWlLk6GJQsqaUBKTNV-1">
          <mxGeometry x="340" y="2660" width="120" height="60" as="geometry" />
        </mxCell>
        <mxCell id="FWDyRuFAGnxOfG8vz_2f-139" style="edgeStyle=orthogonalEdgeStyle;rounded=0;orthogonalLoop=1;jettySize=auto;html=1;entryX=0;entryY=0.5;entryDx=0;entryDy=0;" edge="1" parent="WIyWlLk6GJQsqaUBKTNV-1" source="FWDyRuFAGnxOfG8vz_2f-138" target="FWDyRuFAGnxOfG8vz_2f-137">
          <mxGeometry relative="1" as="geometry" />
        </mxCell>
        <mxCell id="FWDyRuFAGnxOfG8vz_2f-144" style="edgeStyle=orthogonalEdgeStyle;rounded=0;orthogonalLoop=1;jettySize=auto;html=1;entryX=0;entryY=0.75;entryDx=0;entryDy=0;" edge="1" parent="WIyWlLk6GJQsqaUBKTNV-1" source="FWDyRuFAGnxOfG8vz_2f-138" target="FWDyRuFAGnxOfG8vz_2f-143">
          <mxGeometry relative="1" as="geometry" />
        </mxCell>
        <mxCell id="FWDyRuFAGnxOfG8vz_2f-138" value="UI" style="ellipse;whiteSpace=wrap;html=1;" vertex="1" parent="WIyWlLk6GJQsqaUBKTNV-1">
          <mxGeometry x="140" y="2720" width="80" height="80" as="geometry" />
        </mxCell>
        <mxCell id="FWDyRuFAGnxOfG8vz_2f-148" value="" style="edgeStyle=orthogonalEdgeStyle;rounded=0;orthogonalLoop=1;jettySize=auto;html=1;" edge="1" parent="WIyWlLk6GJQsqaUBKTNV-1" source="FWDyRuFAGnxOfG8vz_2f-140" target="FWDyRuFAGnxOfG8vz_2f-146">
          <mxGeometry relative="1" as="geometry" />
        </mxCell>
        <mxCell id="FWDyRuFAGnxOfG8vz_2f-140" value="" style="shape=cylinder3;whiteSpace=wrap;html=1;boundedLbl=1;backgroundOutline=1;size=15;" vertex="1" parent="WIyWlLk6GJQsqaUBKTNV-1">
          <mxGeometry x="565" y="2650" width="60" height="80" as="geometry" />
        </mxCell>
        <mxCell id="FWDyRuFAGnxOfG8vz_2f-141" style="edgeStyle=orthogonalEdgeStyle;rounded=0;orthogonalLoop=1;jettySize=auto;html=1;entryX=0;entryY=0.5;entryDx=0;entryDy=0;entryPerimeter=0;" edge="1" parent="WIyWlLk6GJQsqaUBKTNV-1" source="FWDyRuFAGnxOfG8vz_2f-137" target="FWDyRuFAGnxOfG8vz_2f-140">
          <mxGeometry relative="1" as="geometry" />
        </mxCell>
        <mxCell id="FWDyRuFAGnxOfG8vz_2f-150" style="edgeStyle=orthogonalEdgeStyle;rounded=0;orthogonalLoop=1;jettySize=auto;html=1;entryX=1;entryY=0.625;entryDx=0;entryDy=0;entryPerimeter=0;" edge="1" parent="WIyWlLk6GJQsqaUBKTNV-1" source="FWDyRuFAGnxOfG8vz_2f-143" target="FWDyRuFAGnxOfG8vz_2f-138">
          <mxGeometry relative="1" as="geometry" />
        </mxCell>
        <mxCell id="FWDyRuFAGnxOfG8vz_2f-143" value="Write" style="whiteSpace=wrap;html=1;" vertex="1" parent="WIyWlLk6GJQsqaUBKTNV-1">
          <mxGeometry x="340" y="2790" width="120" height="60" as="geometry" />
        </mxCell>
        <mxCell id="FWDyRuFAGnxOfG8vz_2f-147" value="" style="edgeStyle=orthogonalEdgeStyle;rounded=0;orthogonalLoop=1;jettySize=auto;html=1;" edge="1" parent="WIyWlLk6GJQsqaUBKTNV-1" source="FWDyRuFAGnxOfG8vz_2f-146" target="FWDyRuFAGnxOfG8vz_2f-143">
          <mxGeometry relative="1" as="geometry" />
        </mxCell>
        <mxCell id="FWDyRuFAGnxOfG8vz_2f-146" value="" style="shape=cylinder3;whiteSpace=wrap;html=1;boundedLbl=1;backgroundOutline=1;size=15;" vertex="1" parent="WIyWlLk6GJQsqaUBKTNV-1">
          <mxGeometry x="574" y="2780" width="60" height="80" as="geometry" />
        </mxCell>
        <mxCell id="FWDyRuFAGnxOfG8vz_2f-149" style="edgeStyle=orthogonalEdgeStyle;rounded=0;orthogonalLoop=1;jettySize=auto;html=1;entryX=0.733;entryY=0.963;entryDx=0;entryDy=0;entryPerimeter=0;" edge="1" parent="WIyWlLk6GJQsqaUBKTNV-1" source="FWDyRuFAGnxOfG8vz_2f-146" target="FWDyRuFAGnxOfG8vz_2f-140">
          <mxGeometry relative="1" as="geometry" />
        </mxCell>
      </root>
    </mxGraphModel>
  </diagram>
</mxfile>
